<svg width="21" height="20" viewBox="6701 -669 21 20" xmlns="http://www.w3.org/2000/svg"><path d="M6715.3-654.286a8.5 8.5 0 1 1 1.296-1.532l5.318 5.318-1.414 1.414-5.2-5.2zm-5.274-10.875a26.105 26.105 0 0 1 1.323.847c.123.085.24.167.349.246.373.27.644.497.77.646.118.139.28.396.47.74.073.133.15.278.229.432a27.294 27.294 0 0 1 .675 1.425l.917-.4a28.284 28.284 0 0 0-.701-1.48 17.038 17.038 0 0 0-.244-.46c-.219-.397-.412-.701-.583-.903-.193-.227-.512-.495-.946-.81a27.073 27.073 0 0 0-1.748-1.143l-.511.86z" fill="#00BFFF" fill-rule="evenodd"/></svg>