<svg width="94" height="29" viewBox="0 0 94 29" xmlns="http://www.w3.org/2000/svg"><path d="M82.53 18.485h-7.988l3.964-13.22 4.024 13.22zM81.273.005c2.149 0 2.701.536 3.518 2.956l8.815 26.018h-7.853l-1.915-6.255h-10.57l-1.905 6.255h-4.53L75.72.004l5.552.002zM35.328 12.754l2.425-3.606c.614-.906.741-1.474.741-2.109 0-1.77-1.558-3.256-3.358-3.256H31.41v21.316h2.065c3.454 0 6.076-1.861 6.076-6.22 0-3.593-1.69-5.513-4.223-6.125zM36.78 28.99H24.578V0h12.646c5.93 0 7.996 4.82 4.995 9.266l-1.421 2.102c9.95 5.151 6.713 17.622-4.019 17.622zM10.755 12.754l2.422-3.606c.613-.906.742-1.474.742-2.109 0-1.77-1.561-3.256-3.356-3.256h-3.73v21.316h2.065c3.455 0 6.076-1.861 6.076-6.22 0-3.593-1.692-5.513-4.22-6.125zm1.449 16.236H0V0h12.65c5.93 0 7.996 4.82 4.993 9.266l-1.42 2.102c9.947 5.151 6.712 17.622-4.02 17.622zM65.645 0h4.588l-8.855 28.976-6.972-.004-9.5-28.968L50.04 0c1.98 0 2.502.51 3.539 3.792l5.498 18.218L65.645 0" fill="#FFF" fill-rule="evenodd"/></svg>